<svg width="87" height="69" viewBox="0 0 87 69" fill="none" xmlns="http://www.w3.org/2000/svg">
<g filter="url(#filter0_d_14_2159)">
<path d="M80.7036 27.0852C80.3084 25.8861 79.934 24.8731 79.6428 23.8188C79.4555 23.1573 79.0811 22.9712 78.4363 22.9919C76.3977 23.0746 74.3383 22.9712 72.3205 23.2193C70.3028 23.4674 68.9299 22.8678 68.0146 21.0693C67.7442 20.5318 67.2865 20.0563 66.8913 19.5808C66.3504 18.9399 66.2464 18.299 66.5585 17.4928C67.4529 15.2187 68.2226 12.9033 69.1171 10.6086C69.4083 9.86437 69.2627 9.40956 68.597 8.97542C67.3697 8.14849 66.2256 7.25955 65.0399 6.43262C63.3758 5.29559 63.8334 5.2129 62.1693 6.45329C60.3387 7.81772 58.5082 9.16148 56.6984 10.5673C56.116 11.0221 55.5543 11.0841 54.8679 10.836C53.7654 10.4225 52.6629 10.0091 51.5188 9.76101C50.5411 9.5336 50.0835 8.97542 49.8339 8.0658C49.1682 5.7504 48.4193 3.45567 47.7537 1.14027C47.5665 0.478726 47.2336 0.147955 46.5472 0.127281C44.8414 0.106608 43.1565 0.106608 41.4716 0.0239153C40.5355 -0.0174311 40.0154 0.313341 39.745 1.24364C39.121 3.49702 38.3721 5.70905 37.7272 7.96244C37.4776 8.85138 37.0616 9.36821 36.1047 9.57495C34.8982 9.8437 33.6917 10.2158 32.5476 10.6706C31.7571 10.9807 31.1747 10.836 30.5506 10.3605C28.5121 8.81004 26.4527 7.30089 24.4349 5.72973C23.8941 5.31626 23.4781 5.31626 22.958 5.70905C21.5019 6.76339 20.025 7.79705 18.548 8.78936C17.924 9.20283 17.9032 9.63697 18.1528 10.2778C19.0681 12.6553 19.9418 15.0534 20.753 17.4514C20.8986 17.8856 20.753 18.5471 20.5034 18.9399C19.7545 20.0976 18.8393 21.152 18.0696 22.289C17.612 22.9505 17.0711 23.2193 16.2598 23.1779C13.7012 23.0746 11.1426 23.0125 8.5632 22.9919C8.20957 22.9919 7.64793 23.1573 7.54392 23.4053C7.06548 24.563 6.71185 25.7621 6.25421 27.0852C6.81586 27.0852 7.19029 27.0852 7.58552 27.0852C11.3922 27.0852 15.2198 27.0025 19.0265 27.1265C20.5242 27.1679 21.5227 26.8784 22.0219 25.39C22.1883 24.9145 22.5628 24.501 22.8332 24.0876C29.1153 14.4538 41.9916 10.5673 52.6213 15.0327C58.1338 17.3481 62.2733 21.1106 65.1231 26.3409C65.2896 26.6717 65.7472 27.0645 66.0592 27.0645C70.8644 27.1058 75.6904 27.0852 80.7036 27.0852Z" fill="white"/>
<path d="M80.7036 27.0853C75.6696 27.0853 70.8644 27.106 66.0384 27.044C65.7264 27.044 65.2687 26.6512 65.1023 26.3204C62.2525 21.0901 58.1129 17.3276 52.6005 15.0122C41.9916 10.5674 29.1153 14.454 22.7916 24.067C22.5003 24.5012 22.1259 24.894 21.9803 25.3695C21.4811 26.8579 20.4826 27.168 18.9849 27.106C15.1781 26.982 11.3714 27.0647 7.5439 27.0647C7.16947 27.0647 6.79503 27.0647 6.21259 27.0647C6.64942 25.7622 7.00305 24.5425 7.50229 23.3848C7.6063 23.1367 8.16795 22.9714 8.52158 22.9714C11.0802 22.992 13.6596 23.0541 16.2182 23.1574C17.0503 23.1988 17.5703 22.93 18.028 22.2685C18.8184 21.1314 19.7129 20.0771 20.4618 18.9194C20.7114 18.5266 20.857 17.8651 20.7114 17.4309C19.9001 15.0122 19.0057 12.6347 18.1112 10.2573C17.8616 9.61646 17.9032 9.18232 18.5064 8.76886C20.0041 7.77654 21.4603 6.72221 22.9164 5.68854C23.4364 5.31643 23.8525 5.29575 24.3933 5.70922C26.4111 7.28038 28.4913 8.78953 30.509 10.34C31.1331 10.8155 31.7155 10.9809 32.506 10.6501C33.6501 10.1953 34.8566 9.82319 36.0631 9.55444C37.02 9.3477 37.436 8.83087 37.6856 7.94193C38.3097 5.68854 39.0585 3.47651 39.7034 1.22313C39.9738 0.292833 40.4939 -0.0379389 41.4299 0.0034075C43.1149 0.0861004 44.8206 0.0861004 46.5056 0.106774C47.2128 0.106774 47.5248 0.437545 47.7121 1.11976C48.3777 3.43516 49.1266 5.72989 49.7922 8.04529C50.0419 8.95491 50.4995 9.51309 51.4772 9.7405C52.6213 10.0092 53.7238 10.402 54.8263 10.8155C55.5127 11.0843 56.0744 11.0016 56.6568 10.5468C58.4666 9.16165 60.2971 7.79721 62.1277 6.43278C63.7918 5.19239 63.355 5.27508 64.9983 6.41211C66.184 7.23904 67.3489 8.12799 68.5554 8.91357C69.2211 9.34771 69.3667 9.80252 69.0754 10.5468C68.2018 12.8208 67.4113 15.1362 66.5168 17.4309C66.2048 18.2372 66.3088 18.8781 66.8497 19.5189C67.2449 19.9944 67.6817 20.4699 67.973 21.0074C68.8882 22.806 70.2611 23.4055 72.2789 23.1574C74.2967 22.9093 76.3561 23.0127 78.3946 22.93C79.0395 22.9093 79.4139 23.1161 79.6011 23.7569C79.9548 24.8733 80.3292 25.8863 80.7036 27.0853Z" fill="#FF3811"/>
<path d="M59.5691 34.0729C57.1145 31.6541 54.639 29.2147 52.1636 26.7546C51.7268 26.3204 51.4564 26.6098 51.1444 26.9199C49.9795 28.0983 48.8146 29.2767 47.6289 30.4137C46.88 31.1373 46.0687 31.8402 45.2783 32.5431C45.3407 32.6464 45.4031 32.7291 45.4655 32.8325C47.7745 32.3777 49.7922 32.8532 51.4564 34.4863C53.0997 36.1195 53.5366 38.1662 53.1205 40.3782C55.2839 38.2695 57.3849 36.2022 59.5691 34.0729Z" fill="white"/>
<path d="M41.638 32.7085C41.326 32.357 41.1803 32.1296 40.9931 31.9435C39.329 30.2897 37.6233 28.6772 36.0007 26.982C35.4183 26.3824 35.0646 26.4031 34.503 26.982C32.3396 29.1733 30.1762 31.3233 27.9504 33.4527C27.3888 33.9902 27.5136 34.321 27.992 34.7964C29.7394 36.5123 31.4659 38.2489 33.2133 39.9648C33.3589 40.1095 33.5669 40.1922 33.8165 40.3575C33.0885 35.396 36.5832 31.9849 41.638 32.7085Z" fill="white"/>
<path d="M33.5461 24.6045C30.9043 27.2713 28.3457 29.8762 25.8079 32.4396C25.9951 32.6877 26.2447 33.0392 26.4735 33.3286C29.1569 30.6617 31.7364 28.1189 34.4822 25.4107C34.191 25.1627 33.8581 24.8732 33.5461 24.6045Z" fill="white"/>
<path d="M63.0638 30.6617C63.0014 30.5584 62.9598 30.4343 62.8766 30.331C60.526 27.9949 58.1962 25.6795 55.8456 23.3434C55.4504 22.9506 55.1591 22.9299 54.7223 23.3434C54.2647 23.7982 54.3479 24.1083 54.7639 24.5218C56.8649 26.5684 58.9243 28.6358 61.0044 30.7031C61.3373 31.0339 61.6909 31.3439 62.1693 31.7988C62.4814 31.406 62.731 31.0959 63.0638 30.6617Z" fill="white"/>
<path d="M61.3997 32.3154C58.9866 29.9173 56.6153 27.5813 54.2439 25.2038C53.8486 24.811 53.5158 24.5009 52.9749 25.0798C52.4549 25.638 52.7461 25.9687 53.1622 26.3615C55.2839 28.4495 57.3849 30.5375 59.4859 32.6255C60.422 33.5765 60.4428 33.5765 61.3997 32.3154Z" fill="white"/>
<path d="M32.6725 23.8395C31.7364 22.7025 31.7572 22.7025 30.7587 23.6741C28.7201 25.7001 26.6816 27.7054 24.6638 29.7314C23.6861 30.703 23.7069 30.8271 24.8718 31.4886C27.472 28.9458 30.0514 26.403 32.6725 23.8395Z" fill="white"/>
<path d="M59.5691 34.0727C57.3849 36.2227 55.2839 38.2694 53.1205 40.3987C53.5366 38.1867 53.0997 36.1607 51.4564 34.5068C49.7922 32.853 47.7537 32.3982 45.4655 32.853C45.4031 32.7496 45.3407 32.6669 45.2783 32.5636C46.0687 31.8607 46.8592 31.1785 47.6289 30.4342C48.8146 29.2765 49.9795 28.1188 51.1444 26.9404C51.4564 26.6303 51.7268 26.3409 52.1636 26.7751C54.639 29.1938 57.1145 31.6333 59.5691 34.0727ZM53.8902 30.7236C53.4533 31.3025 52.9333 31.6953 52.9749 31.9847C53.0373 32.3362 53.5782 32.6256 53.911 32.9357C54.2022 32.6256 54.7015 32.3155 54.7223 31.9847C54.7639 31.6539 54.3062 31.2818 53.8902 30.7236Z" fill="white"/>
<path d="M41.638 32.7083C36.5624 31.9847 33.0885 35.3958 33.8165 40.378C33.5669 40.2127 33.3589 40.13 33.2133 39.9853C31.4659 38.2694 29.7394 36.5328 27.992 34.817C27.5136 34.3415 27.3888 34.0107 27.9504 33.4732C30.1554 31.3438 32.3396 29.1732 34.503 27.0025C35.0646 26.4236 35.4183 26.4029 36.0007 27.0025C37.6233 28.6977 39.329 30.3102 40.9931 31.964C41.1803 32.1294 41.3468 32.3568 41.638 32.7083ZM34.3782 32.0467C33.7957 31.5713 33.4213 31.0544 33.1509 31.0958C32.7764 31.1578 32.4644 31.6746 32.1316 31.9847C32.4436 32.2948 32.714 32.791 33.0677 32.853C33.3589 32.8943 33.7541 32.4395 34.3782 32.0467Z" fill="white"/>
<path d="M33.5461 24.6045C33.8581 24.8732 34.191 25.142 34.4822 25.4107C31.7572 28.1189 29.1777 30.6617 26.4735 33.3286C26.2447 33.0185 25.9743 32.6671 25.8079 32.4396C28.3457 29.8762 30.9251 27.2713 33.5461 24.6045Z" fill="white"/>
<path d="M63.0638 30.6616C62.7309 31.0957 62.4813 31.4058 62.1693 31.8193C61.6909 31.3645 61.3372 31.0544 61.0044 30.7236C58.9242 28.6563 56.8648 26.5889 54.7639 24.5423C54.327 24.1288 54.2438 23.8187 54.7223 23.3639C55.1383 22.9505 55.4503 22.9711 55.8456 23.3639C58.1754 25.7 60.526 28.0154 62.8765 30.3515C62.9598 30.4135 63.0014 30.5582 63.0638 30.6616Z" fill="white"/>
<path d="M61.3997 32.3154C60.4636 33.5765 60.4428 33.5765 59.4859 32.6255C57.3849 30.5375 55.2839 28.4289 53.1622 26.3615C52.7461 25.9687 52.4549 25.638 52.9749 25.0798C53.5158 24.5009 53.8486 24.811 54.2439 25.2038C56.6153 27.5813 58.9866 29.9173 61.3997 32.3154Z" fill="white"/>
<path d="M32.6725 23.8396C30.0514 26.4237 27.472 28.9458 24.8718 31.5093C23.7069 30.8478 23.6861 30.7237 24.6638 29.7521C26.7024 27.7261 28.7409 25.7208 30.7587 23.6948C31.7572 22.7025 31.7572 22.7025 32.6725 23.8396Z" fill="white"/>
<path d="M53.8902 30.7236C54.2855 31.3025 54.7431 31.6539 54.7223 31.9847C54.7015 32.3155 54.2022 32.6256 53.911 32.9357C53.5782 32.6256 53.0373 32.3568 52.9749 31.9847C52.9333 31.6953 53.4534 31.3025 53.8902 30.7236Z" fill="white"/>
<path d="M34.3782 32.0469C33.7541 32.4397 33.3797 32.8945 33.0469 32.8325C32.6932 32.7912 32.4228 32.2743 32.1108 31.9642C32.4436 31.6541 32.7556 31.1373 33.1301 31.0753C33.4213 31.0546 33.7957 31.5921 34.3782 32.0469Z" fill="white"/>
<path d="M9.92918 51.2634C9.08889 51.2634 8.43827 51.5803 7.97731 52.2141C7.51635 52.8431 7.28587 53.7218 7.28587 54.8502C7.28587 57.1982 8.16697 58.3722 9.92918 58.3722C10.6686 58.3722 11.5641 58.1874 12.6157 57.8176V59.6903C11.7514 60.0504 10.7863 60.2305 9.72031 60.2305C8.18858 60.2305 7.01697 59.7671 6.20549 58.8404C5.39401 57.9089 4.98827 56.574 4.98827 54.8358C4.98827 53.741 5.18754 52.7831 5.58608 51.962C5.98462 51.1361 6.55602 50.5047 7.30027 50.0678C8.04933 49.626 8.92564 49.4051 9.92918 49.4051C10.9519 49.4051 11.9795 49.6524 13.0118 50.147L12.2916 51.962C11.8979 51.7747 11.5017 51.6115 11.1032 51.4722C10.7047 51.333 10.3133 51.2634 9.92918 51.2634ZM19.8038 60.0864L19.3789 58.9916H19.3212C18.9515 59.4574 18.5698 59.7815 18.176 59.964C17.7871 60.1416 17.2781 60.2305 16.6491 60.2305C15.876 60.2305 15.2662 60.0096 14.8197 59.5678C14.3779 59.1261 14.157 58.4971 14.157 57.6808C14.157 56.8261 14.4547 56.1971 15.0502 55.7937C15.6504 55.3856 16.5531 55.1599 17.7583 55.1167L19.1556 55.0735V54.7206C19.1556 53.9043 18.7378 53.4961 17.9023 53.4961C17.2589 53.4961 16.5027 53.6906 15.6336 54.0795L14.9061 52.5958C15.8328 52.1109 16.8604 51.8684 17.9888 51.8684C19.0691 51.8684 19.8974 52.1037 20.4736 52.5742C21.0498 53.0448 21.3379 53.7602 21.3379 54.7206V60.0864H19.8038ZM19.1556 56.3555L18.3057 56.3843C17.6671 56.4036 17.1917 56.5188 16.8796 56.7301C16.5675 56.9413 16.4114 57.263 16.4114 57.6952C16.4114 58.3146 16.7667 58.6243 17.4774 58.6243C17.9864 58.6243 18.3921 58.4779 18.6946 58.185C19.0019 57.8921 19.1556 57.5031 19.1556 57.0182V56.3555ZM28.1011 51.8828C28.3988 51.8828 28.6461 51.9044 28.8429 51.9476L28.6773 54.0075C28.4996 53.9595 28.2835 53.9355 28.029 53.9355C27.328 53.9355 26.7806 54.1156 26.3869 54.4757C25.9979 54.8358 25.8035 55.34 25.8035 55.9882V60.0864H23.6067V52.034H25.2705L25.5946 53.3881H25.7026C25.9523 52.9368 26.2884 52.5742 26.711 52.3005C27.1383 52.022 27.6017 51.8828 28.1011 51.8828ZM43.0462 54.7206C43.0462 56.454 42.5517 57.7816 41.5625 58.7035C40.5782 59.6255 39.1545 60.0864 37.2915 60.0864H34.3096V49.5564H37.6156C39.3346 49.5564 40.6694 50.0101 41.6202 50.9177C42.5709 51.8252 43.0462 53.0928 43.0462 54.7206ZM40.727 54.7782C40.727 52.5166 39.7283 51.3858 37.7308 51.3858H36.5424V58.2426H37.5003C39.6515 58.2426 40.727 57.0878 40.727 54.7782ZM46.8059 56.0458C46.8059 56.8429 46.9356 57.4455 47.1949 57.8537C47.459 58.2618 47.8863 58.4659 48.4769 58.4659C49.0627 58.4659 49.4829 58.2642 49.7374 57.8609C49.9966 57.4527 50.1263 56.8477 50.1263 56.0458C50.1263 55.2488 49.9966 54.6509 49.7374 54.2524C49.4781 53.8539 49.0531 53.6546 48.4625 53.6546C47.8767 53.6546 47.4542 53.8539 47.1949 54.2524C46.9356 54.6461 46.8059 55.2439 46.8059 56.0458ZM52.3735 56.0458C52.3735 57.3567 52.0278 58.3818 51.3363 59.1213C50.6449 59.8607 49.6821 60.2305 48.4481 60.2305C47.675 60.2305 46.9932 60.0624 46.4026 59.7263C45.812 59.3854 45.3582 58.898 45.0413 58.2642C44.7244 57.6304 44.566 56.8909 44.566 56.0458C44.566 54.7302 44.9093 53.7074 45.5959 52.9776C46.2826 52.2477 47.2477 51.8828 48.4913 51.8828C49.2644 51.8828 49.9462 52.0508 50.5368 52.387C51.1274 52.7231 51.5812 53.2056 51.8981 53.8347C52.215 54.4637 52.3735 55.2007 52.3735 56.0458ZM57.4584 60.2305C54.952 60.2305 53.6987 58.8548 53.6987 56.1034C53.6987 54.735 54.0396 53.6906 54.7215 52.9704C55.4033 52.2453 56.3805 51.8828 57.6529 51.8828C58.5844 51.8828 59.4199 52.0652 60.1594 52.4302L59.5111 54.13C59.1654 53.9907 58.8437 53.8779 58.546 53.7914C58.2483 53.7002 57.9506 53.6546 57.6529 53.6546C56.5101 53.6546 55.9387 54.4661 55.9387 56.089C55.9387 57.664 56.5101 58.4515 57.6529 58.4515C58.0754 58.4515 58.4668 58.3962 58.8269 58.2858C59.187 58.1706 59.5472 57.9929 59.9073 57.7528V59.6327C59.552 59.8583 59.1918 60.0144 58.8269 60.1008C58.4668 60.1873 58.0106 60.2305 57.4584 60.2305ZM65.1723 58.4803C65.5564 58.4803 66.0174 58.3962 66.5552 58.2282V59.8631C66.0078 60.108 65.3356 60.2305 64.5385 60.2305C63.6598 60.2305 63.0188 60.0096 62.6154 59.5678C62.2169 59.1213 62.0176 58.4539 62.0176 57.5656V53.6834H60.966V52.7543L62.1761 52.0196L62.8099 50.3198H64.2144V52.034H66.4688V53.6834H64.2144V57.5656C64.2144 57.8777 64.3008 58.1081 64.4737 58.257C64.6513 58.4058 64.8842 58.4803 65.1723 58.4803ZM69.9404 56.0458C69.9404 56.8429 70.07 57.4455 70.3293 57.8537C70.5934 58.2618 71.0207 58.4659 71.6113 58.4659C72.1971 58.4659 72.6173 58.2642 72.8718 57.8609C73.1311 57.4527 73.2607 56.8477 73.2607 56.0458C73.2607 55.2488 73.1311 54.6509 72.8718 54.2524C72.6125 53.8539 72.1875 53.6546 71.5969 53.6546C71.0111 53.6546 70.5886 53.8539 70.3293 54.2524C70.07 54.6461 69.9404 55.2439 69.9404 56.0458ZM75.5079 56.0458C75.5079 57.3567 75.1622 58.3818 74.4707 59.1213C73.7793 59.8607 72.8165 60.2305 71.5825 60.2305C70.8095 60.2305 70.1276 60.0624 69.537 59.7263C68.9464 59.3854 68.4926 58.898 68.1757 58.2642C67.8588 57.6304 67.7004 56.8909 67.7004 56.0458C67.7004 54.7302 68.0437 53.7074 68.7303 52.9776C69.417 52.2477 70.3821 51.8828 71.6257 51.8828C72.3988 51.8828 73.0806 52.0508 73.6712 52.387C74.2618 52.7231 74.7156 53.2056 75.0325 53.8347C75.3494 54.4637 75.5079 55.2007 75.5079 56.0458ZM81.8173 51.8828C82.115 51.8828 82.3622 51.9044 82.5591 51.9476L82.3935 54.0075C82.2158 53.9595 81.9997 53.9355 81.7452 53.9355C81.0442 53.9355 80.4968 54.1156 80.1031 54.4757C79.7141 54.8358 79.5197 55.34 79.5197 55.9882V60.0864H77.3229V52.034H78.9867L79.3108 53.3881H79.4188C79.6685 52.9368 80.0046 52.5742 80.4272 52.3005C80.8545 52.022 81.3179 51.8828 81.8173 51.8828Z" fill="white"/>
</g>
<defs>
<filter id="filter0_d_14_2159" x="0.988281" y="0" width="85.5708" height="68.2305" filterUnits="userSpaceOnUse" color-interpolation-filters="sRGB">
<feFlood flood-opacity="0" result="BackgroundImageFix"/>
<feColorMatrix in="SourceAlpha" type="matrix" values="0 0 0 0 0 0 0 0 0 0 0 0 0 0 0 0 0 0 127 0" result="hardAlpha"/>
<feOffset dy="4"/>
<feGaussianBlur stdDeviation="2"/>
<feComposite in2="hardAlpha" operator="out"/>
<feColorMatrix type="matrix" values="0 0 0 0 0 0 0 0 0 0 0 0 0 0 0 0 0 0 0.25 0"/>
<feBlend mode="normal" in2="BackgroundImageFix" result="effect1_dropShadow_14_2159"/>
<feBlend mode="normal" in="SourceGraphic" in2="effect1_dropShadow_14_2159" result="shape"/>
</filter>
</defs>
</svg>
